<svg data-v-0dd9719b="" version="1.0" xmlns="http://www.w3.org/2000/svg" xmlns:xlink="http://www.w3.org/1999/xlink" width="100%" height="100%" viewBox="0 0 340.000000 250.000000" preserveAspectRatio="xMidYMid meet" color-interpolation-filters="sRGB" style="margin: auto;"> <rect data-v-0dd9719b="" x="0" y="0" width="100%" height="100%" fill="#fff" fill-opacity="1" class="background"></rect> <rect data-v-0dd9719b="" x="0" y="0" width="100%" height="100%" fill="url(#watermark)" fill-opacity="1" class="watermarklayer"></rect> <g data-v-0dd9719b="" fill="#00a0e9" class="icon-text-wrapper icon-svg-group iconsvg" transform="translate(83.06999969482422,71.85220718383789)"><g class="iconsvg-imagesvg" transform="translate(56.93000030517578,0)"><g><rect fill="#00a0e9" fill-opacity="0" stroke-width="2" x="0" y="0" width="60" height="62.715584822828475" class="image-rect"></rect> <svg x="0" y="0" width="60" height="62.715584822828475" filtersec="colorsb9934044145" class="image-svg-svg primary" style="overflow: visible;"><svg xmlns="http://www.w3.org/2000/svg" viewBox="0.06436872482299805 0.057318203151226044 27.0687255859375 28.29380989074707"><g><g fill-rule="evenodd"><path d="M5 22.19A9 9 0 0 1 5 6.13l.2-.08a2.46 2.46 0 0 1 3.6 2.17v11.94a2.46 2.46 0 0 1-3.83 2z" fill="#00a0e9"></path><path d="M18.81 27.67a15.11 15.11 0 0 0 0-27 2.12 2.12 0 0 0-.33-.13 4.14 4.14 0 0 0-6.08 3.65v20.02a4.14 4.14 0 0 0 6.46 3.43z" fill="#abcd03"></path></g></g></svg></svg> <!----></g></g> <g transform="translate(0,69.71558380126953)"><g data-gra="path-name" fill-rule="" class="tp-name iconsvg-namesvg"><g transform="scale(1)"><g><path d="M24.02-12.78L11.52-12.78 11.52 0 3.73 0 3.73-36.58 21.99-36.58Q26.98-36.58 29.12-35.87L29.12-35.87Q32.74-34.66 34.83-30.88L34.83-30.88Q36.36-28.03 36.36-24.68L36.36-24.68Q36.36-21.88 35.35-19.39 34.33-16.89 32.52-15.3L32.52-15.3Q30.88-13.88 29.04-13.33 27.2-12.78 24.02-12.78L24.02-12.78ZM11.52-30.05L11.52-19.31 22.1-19.31Q24.95-19.31 26.11-20.18L26.11-20.18Q27.81-21.55 27.81-24.95L27.81-24.95Q27.81-28.63 25.23-29.67L25.23-29.67Q24.3-30.05 22.27-30.05L22.27-30.05 11.52-30.05ZM55.61-36.58L68.72-36.58 68.72-30.05 58.57-30.05Q54.63-30.05 52.82-29.51 51.01-28.96 49.8-27.37L49.8-27.37Q48.98-26.27 48.67-25.17 48.37-24.08 48.15-21.44L48.15-21.44 68.72-21.44 68.72-14.92 48.15-14.92Q48.59-10.2 50.95-8.36 53.31-6.53 58.96-6.53L58.96-6.53 68.72-6.53 68.72 0 58.57 0Q54.46 0 51.33-0.49L51.33-0.49Q46.4-1.32 43.49-4.83L43.49-4.83Q39.32-9.87 39.32-18.48L39.32-18.48Q39.32-28.03 45.19-33.35L45.19-33.35Q47.22-35.16 49.5-35.87 51.77-36.58 55.61-36.58L55.61-36.58ZM88.9-13.88L82.65-13.88 82.65 0 74.86 0 74.86-36.58 92.74-36.58Q100.42-36.58 103.44-34.61L103.44-34.61Q105.52-33.29 106.65-31.12 107.77-28.96 107.77-26.38L107.77-26.38Q107.77-21.17 105.14-18.32L105.14-18.32Q103.49-16.62 100.8-15.74L100.8-15.74Q102.94-14.97 104.04-14.12 105.14-13.27 106.01-11.63L106.01-11.63Q106.67-10.31 106.97-9.1 107.28-7.9 107.44-5.54L107.44-5.54Q107.77-1.59 108.32 0L108.32 0 99.6 0Q99.21-1.26 98.78-5.21L98.78-5.21Q98.5-8.39 97.65-10.09 96.8-11.79 95.1-12.78L95.1-12.78Q92.96-13.93 88.9-13.88L88.9-13.88ZM82.65-30.05L82.65-20.4 93.56-20.4Q96.31-20.4 97.46-21.22L97.46-21.22Q99.21-22.43 99.21-25.45L99.21-25.45Q99.21-28.79 96.58-29.73L96.58-29.73Q95.65-30.05 93.56-30.05L93.56-30.05 82.65-30.05ZM114.02-36.58L121.81-36.58 121.81 0 114.02 0 114.02-36.58ZM135.36 0L122.08-18.48 136.07-36.58 146.33-36.58 131.02-18.48 145.61 0 135.36 0ZM164.48-36.58L177.59-36.58 177.59-30.05 167.44-30.05Q163.49-30.05 161.68-29.51 159.87-28.96 158.67-27.37L158.67-27.37Q157.84-26.27 157.54-25.17 157.24-24.08 157.02-21.44L157.02-21.44 177.59-21.44 177.59-14.92 157.02-14.92Q157.46-10.2 159.82-8.36 162.18-6.53 167.82-6.53L167.82-6.53 177.59-6.53 177.59 0 167.44 0Q163.33 0 160.2-0.49L160.2-0.49Q155.27-1.32 152.36-4.83L152.36-4.83Q148.19-9.87 148.19-18.48L148.19-18.48Q148.19-28.03 154.06-33.35L154.06-33.35Q156.09-35.16 158.36-35.87 160.64-36.58 164.48-36.58L164.48-36.58Z" transform="translate(-3.7300000190734863, 36.58000183105469)"></path></g> <!----> <!----> <!----> <!----> <!----> <!----> <!----></g></g> <!----></g></g><defs v-gra="od"></defs></svg>